<mxfile host="app.diagrams.net" agent="Mozilla/5.0 (Windows NT 10.0; Win64; x64) AppleWebKit/537.36 (KHTML, like Gecko) Chrome/127.0.0.0 Safari/537.36" version="24.7.6">
  <diagram name="Strona-1" id="-hJb4gtZLJWdiV9A1IdE">
    <mxGraphModel dx="1434" dy="746" grid="1" gridSize="10" guides="1" tooltips="1" connect="1" arrows="1" fold="1" page="1" pageScale="1" pageWidth="980" pageHeight="1390" background="#FFFFFF" math="0" shadow="0">
      <root>
        <mxCell id="0" />
        <mxCell id="1" parent="0" />
        <mxCell id="PDOGHzKi66E8nlf_EuT3-35" value="Apprentice" style="shape=table;startSize=30;container=1;collapsible=1;childLayout=tableLayout;fixedRows=1;rowLines=0;fontStyle=1;align=center;resizeLast=1;html=1;rounded=1;labelBackgroundColor=none;fillColor=#F2CC8F;strokeColor=#E07A5F;fontColor=#393C56;swimlaneFillColor=#E7D0D0;" vertex="1" parent="1">
          <mxGeometry x="110" y="360" width="189" height="170" as="geometry" />
        </mxCell>
        <mxCell id="PDOGHzKi66E8nlf_EuT3-36" value="" style="shape=tableRow;horizontal=0;startSize=0;swimlaneHead=0;swimlaneBody=0;fillColor=none;collapsible=0;dropTarget=0;points=[[0,0.5],[1,0.5]];portConstraint=eastwest;top=0;left=0;right=0;bottom=1;rounded=1;labelBackgroundColor=none;strokeColor=#E07A5F;fontColor=#393C56;" vertex="1" parent="PDOGHzKi66E8nlf_EuT3-35">
          <mxGeometry y="30" width="189" height="30" as="geometry" />
        </mxCell>
        <mxCell id="PDOGHzKi66E8nlf_EuT3-37" value="&lt;div style=&quot;background-color:#282c34;color:#abb2bf&quot;&gt;&lt;pre style=&quot;font-family:&#39;JetBrains Mono&#39;,monospace;font-size:9.8pt;&quot;&gt;PK&lt;/pre&gt;&lt;/div&gt;" style="shape=partialRectangle;connectable=0;fillColor=none;top=0;left=0;bottom=0;right=0;fontStyle=1;overflow=hidden;whiteSpace=wrap;html=1;rounded=1;labelBackgroundColor=none;strokeColor=#E07A5F;fontColor=#393C56;" vertex="1" parent="PDOGHzKi66E8nlf_EuT3-36">
          <mxGeometry width="79" height="30" as="geometry">
            <mxRectangle width="79" height="30" as="alternateBounds" />
          </mxGeometry>
        </mxCell>
        <mxCell id="PDOGHzKi66E8nlf_EuT3-38" value="&lt;div style=&quot;background-color:#282c34;color:#abb2bf&quot;&gt;&lt;pre style=&quot;font-family:&#39;JetBrains Mono&#39;,monospace;font-size:9.8pt;&quot;&gt;&lt;span style=&quot;color:#e06c75;&quot;&gt;apprenticeId&lt;/span&gt;&lt;/pre&gt;&lt;/div&gt;" style="shape=partialRectangle;connectable=0;fillColor=none;top=0;left=0;bottom=0;right=0;align=left;spacingLeft=6;fontStyle=5;overflow=hidden;whiteSpace=wrap;html=1;rounded=1;labelBackgroundColor=none;strokeColor=#E07A5F;fontColor=#393C56;" vertex="1" parent="PDOGHzKi66E8nlf_EuT3-36">
          <mxGeometry x="79" width="110" height="30" as="geometry">
            <mxRectangle width="110" height="30" as="alternateBounds" />
          </mxGeometry>
        </mxCell>
        <mxCell id="PDOGHzKi66E8nlf_EuT3-39" value="" style="shape=tableRow;horizontal=0;startSize=0;swimlaneHead=0;swimlaneBody=0;fillColor=none;collapsible=0;dropTarget=0;points=[[0,0.5],[1,0.5]];portConstraint=eastwest;top=0;left=0;right=0;bottom=0;rounded=1;labelBackgroundColor=none;strokeColor=#E07A5F;fontColor=#393C56;" vertex="1" parent="PDOGHzKi66E8nlf_EuT3-35">
          <mxGeometry y="60" width="189" height="30" as="geometry" />
        </mxCell>
        <mxCell id="PDOGHzKi66E8nlf_EuT3-40" value="&lt;div style=&quot;background-color:#282c34;color:#abb2bf&quot;&gt;&lt;pre style=&quot;font-family:&#39;JetBrains Mono&#39;,monospace;font-size:9.8pt;&quot;&gt;varchar&lt;/pre&gt;&lt;/div&gt;" style="shape=partialRectangle;connectable=0;fillColor=none;top=0;left=0;bottom=0;right=0;editable=1;overflow=hidden;whiteSpace=wrap;html=1;rounded=1;labelBackgroundColor=none;strokeColor=#E07A5F;fontColor=#393C56;" vertex="1" parent="PDOGHzKi66E8nlf_EuT3-39">
          <mxGeometry width="79" height="30" as="geometry">
            <mxRectangle width="79" height="30" as="alternateBounds" />
          </mxGeometry>
        </mxCell>
        <mxCell id="PDOGHzKi66E8nlf_EuT3-41" value="&lt;div style=&quot;background-color:#282c34;color:#abb2bf&quot;&gt;&lt;pre style=&quot;font-family:&#39;JetBrains Mono&#39;,monospace;font-size:9.8pt;&quot;&gt;&lt;span style=&quot;color:#e06c75;&quot;&gt;username&lt;/span&gt;&lt;/pre&gt;&lt;/div&gt;" style="shape=partialRectangle;connectable=0;fillColor=none;top=0;left=0;bottom=0;right=0;align=left;spacingLeft=6;overflow=hidden;whiteSpace=wrap;html=1;rounded=1;labelBackgroundColor=none;strokeColor=#E07A5F;fontColor=#393C56;" vertex="1" parent="PDOGHzKi66E8nlf_EuT3-39">
          <mxGeometry x="79" width="110" height="30" as="geometry">
            <mxRectangle width="110" height="30" as="alternateBounds" />
          </mxGeometry>
        </mxCell>
        <mxCell id="PDOGHzKi66E8nlf_EuT3-42" value="" style="shape=tableRow;horizontal=0;startSize=0;swimlaneHead=0;swimlaneBody=0;fillColor=none;collapsible=0;dropTarget=0;points=[[0,0.5],[1,0.5]];portConstraint=eastwest;top=0;left=0;right=0;bottom=0;rounded=1;labelBackgroundColor=none;strokeColor=#E07A5F;fontColor=#393C56;" vertex="1" parent="PDOGHzKi66E8nlf_EuT3-35">
          <mxGeometry y="90" width="189" height="30" as="geometry" />
        </mxCell>
        <mxCell id="PDOGHzKi66E8nlf_EuT3-43" value="&lt;div style=&quot;background-color:#282c34;color:#abb2bf&quot;&gt;&lt;pre style=&quot;font-family:&#39;JetBrains Mono&#39;,monospace;font-size:9.8pt;&quot;&gt;varchar&lt;/pre&gt;&lt;/div&gt;" style="shape=partialRectangle;connectable=0;fillColor=none;top=0;left=0;bottom=0;right=0;editable=1;overflow=hidden;whiteSpace=wrap;html=1;rounded=1;labelBackgroundColor=none;strokeColor=#E07A5F;fontColor=#393C56;" vertex="1" parent="PDOGHzKi66E8nlf_EuT3-42">
          <mxGeometry width="79" height="30" as="geometry">
            <mxRectangle width="79" height="30" as="alternateBounds" />
          </mxGeometry>
        </mxCell>
        <mxCell id="PDOGHzKi66E8nlf_EuT3-44" value="&lt;div style=&quot;background-color:#282c34;color:#abb2bf&quot;&gt;&lt;pre style=&quot;font-family:&#39;JetBrains Mono&#39;,monospace;font-size:9.8pt;&quot;&gt;&lt;span style=&quot;color:#e06c75;&quot;&gt;password&lt;/span&gt;&lt;/pre&gt;&lt;/div&gt;" style="shape=partialRectangle;connectable=0;fillColor=none;top=0;left=0;bottom=0;right=0;align=left;spacingLeft=6;overflow=hidden;whiteSpace=wrap;html=1;rounded=1;labelBackgroundColor=none;strokeColor=#E07A5F;fontColor=#393C56;" vertex="1" parent="PDOGHzKi66E8nlf_EuT3-42">
          <mxGeometry x="79" width="110" height="30" as="geometry">
            <mxRectangle width="110" height="30" as="alternateBounds" />
          </mxGeometry>
        </mxCell>
        <mxCell id="PDOGHzKi66E8nlf_EuT3-45" value="" style="shape=tableRow;horizontal=0;startSize=0;swimlaneHead=0;swimlaneBody=0;fillColor=none;collapsible=0;dropTarget=0;points=[[0,0.5],[1,0.5]];portConstraint=eastwest;top=0;left=0;right=0;bottom=0;rounded=1;labelBackgroundColor=none;strokeColor=#E07A5F;fontColor=#393C56;" vertex="1" parent="PDOGHzKi66E8nlf_EuT3-35">
          <mxGeometry y="120" width="189" height="33" as="geometry" />
        </mxCell>
        <mxCell id="PDOGHzKi66E8nlf_EuT3-46" value="&lt;div style=&quot;background-color:#282c34;color:#abb2bf&quot;&gt;&lt;pre style=&quot;font-family:&#39;JetBrains Mono&#39;,monospace;font-size:9.8pt;&quot;&gt;varchar&lt;/pre&gt;&lt;/div&gt;" style="shape=partialRectangle;connectable=0;fillColor=none;top=0;left=0;bottom=0;right=0;editable=1;overflow=hidden;whiteSpace=wrap;html=1;rounded=1;labelBackgroundColor=none;strokeColor=#E07A5F;fontColor=#393C56;" vertex="1" parent="PDOGHzKi66E8nlf_EuT3-45">
          <mxGeometry width="79" height="33" as="geometry">
            <mxRectangle width="79" height="33" as="alternateBounds" />
          </mxGeometry>
        </mxCell>
        <mxCell id="PDOGHzKi66E8nlf_EuT3-47" value="&lt;div style=&quot;background-color:#282c34;color:#abb2bf&quot;&gt;&lt;pre style=&quot;font-family:&#39;JetBrains Mono&#39;,monospace;font-size:9.8pt;&quot;&gt;&lt;span style=&quot;color:#e06c75;&quot;&gt;email&lt;/span&gt;&lt;/pre&gt;&lt;/div&gt;" style="shape=partialRectangle;connectable=0;fillColor=none;top=0;left=0;bottom=0;right=0;align=left;spacingLeft=6;overflow=hidden;whiteSpace=wrap;html=1;rounded=1;labelBackgroundColor=none;strokeColor=#E07A5F;fontColor=#393C56;" vertex="1" parent="PDOGHzKi66E8nlf_EuT3-45">
          <mxGeometry x="79" width="110" height="33" as="geometry">
            <mxRectangle width="110" height="33" as="alternateBounds" />
          </mxGeometry>
        </mxCell>
        <mxCell id="PDOGHzKi66E8nlf_EuT3-68" value="Language" style="shape=table;startSize=30;container=1;collapsible=1;childLayout=tableLayout;fixedRows=1;rowLines=0;fontStyle=1;align=center;resizeLast=1;html=1;rounded=1;labelBackgroundColor=none;fillColor=#F2CC8F;strokeColor=#E07A5F;fontColor=#393C56;swimlaneFillColor=#E7D0D0;" vertex="1" parent="1">
          <mxGeometry x="680" y="80" width="270" height="145" as="geometry" />
        </mxCell>
        <mxCell id="PDOGHzKi66E8nlf_EuT3-69" value="" style="shape=tableRow;horizontal=0;startSize=0;swimlaneHead=0;swimlaneBody=0;fillColor=none;collapsible=0;dropTarget=0;points=[[0,0.5],[1,0.5]];portConstraint=eastwest;top=0;left=0;right=0;bottom=1;rounded=1;labelBackgroundColor=none;strokeColor=#E07A5F;fontColor=#393C56;" vertex="1" parent="PDOGHzKi66E8nlf_EuT3-68">
          <mxGeometry y="30" width="270" height="30" as="geometry" />
        </mxCell>
        <mxCell id="PDOGHzKi66E8nlf_EuT3-70" value="&lt;div style=&quot;background-color:#282c34;color:#abb2bf&quot;&gt;&lt;pre style=&quot;font-family:&#39;JetBrains Mono&#39;,monospace;font-size:9.8pt;&quot;&gt;PK&lt;/pre&gt;&lt;/div&gt;" style="shape=partialRectangle;connectable=0;fillColor=none;top=0;left=0;bottom=0;right=0;fontStyle=1;overflow=hidden;whiteSpace=wrap;html=1;rounded=1;labelBackgroundColor=none;strokeColor=#E07A5F;fontColor=#393C56;" vertex="1" parent="PDOGHzKi66E8nlf_EuT3-69">
          <mxGeometry width="99.99999999999977" height="30" as="geometry">
            <mxRectangle width="99.99999999999977" height="30" as="alternateBounds" />
          </mxGeometry>
        </mxCell>
        <mxCell id="PDOGHzKi66E8nlf_EuT3-71" value="&lt;div style=&quot;background-color:#282c34;color:#abb2bf&quot;&gt;&lt;pre style=&quot;font-family:&#39;JetBrains Mono&#39;,monospace;font-size:9.8pt;&quot;&gt;&lt;span style=&quot;color:#e06c75;&quot;&gt;languageId&lt;/span&gt;&lt;/pre&gt;&lt;/div&gt;" style="shape=partialRectangle;connectable=0;fillColor=none;top=0;left=0;bottom=0;right=0;align=left;spacingLeft=6;fontStyle=5;overflow=hidden;whiteSpace=wrap;html=1;rounded=1;labelBackgroundColor=none;strokeColor=#E07A5F;fontColor=#393C56;" vertex="1" parent="PDOGHzKi66E8nlf_EuT3-69">
          <mxGeometry x="99.99999999999977" width="170.00000000000023" height="30" as="geometry">
            <mxRectangle width="170.00000000000023" height="30" as="alternateBounds" />
          </mxGeometry>
        </mxCell>
        <mxCell id="PDOGHzKi66E8nlf_EuT3-72" value="" style="shape=tableRow;horizontal=0;startSize=0;swimlaneHead=0;swimlaneBody=0;fillColor=none;collapsible=0;dropTarget=0;points=[[0,0.5],[1,0.5]];portConstraint=eastwest;top=0;left=0;right=0;bottom=0;rounded=1;labelBackgroundColor=none;strokeColor=#E07A5F;fontColor=#393C56;" vertex="1" parent="PDOGHzKi66E8nlf_EuT3-68">
          <mxGeometry y="60" width="270" height="33" as="geometry" />
        </mxCell>
        <mxCell id="PDOGHzKi66E8nlf_EuT3-73" value="&lt;div style=&quot;background-color:#282c34;color:#abb2bf&quot;&gt;&lt;pre style=&quot;font-family:&#39;JetBrains Mono&#39;,monospace;font-size:9.8pt;&quot;&gt;varchar&lt;/pre&gt;&lt;/div&gt;" style="shape=partialRectangle;connectable=0;fillColor=none;top=0;left=0;bottom=0;right=0;editable=1;overflow=hidden;whiteSpace=wrap;html=1;rounded=1;labelBackgroundColor=none;strokeColor=#E07A5F;fontColor=#393C56;" vertex="1" parent="PDOGHzKi66E8nlf_EuT3-72">
          <mxGeometry width="99.99999999999977" height="33" as="geometry">
            <mxRectangle width="99.99999999999977" height="33" as="alternateBounds" />
          </mxGeometry>
        </mxCell>
        <mxCell id="PDOGHzKi66E8nlf_EuT3-74" value="&lt;div style=&quot;background-color:#282c34;color:#abb2bf&quot;&gt;&lt;pre style=&quot;font-family:&#39;JetBrains Mono&#39;,monospace;font-size:9.8pt;&quot;&gt;&lt;div&gt;&lt;pre style=&quot;font-family:&#39;JetBrains Mono&#39;,monospace;font-size:9.8pt;&quot;&gt;&lt;span style=&quot;color:#e06c75;&quot;&gt;name&lt;/span&gt;&lt;/pre&gt;&lt;/div&gt;&lt;/pre&gt;&lt;/div&gt;" style="shape=partialRectangle;connectable=0;fillColor=none;top=0;left=0;bottom=0;right=0;align=left;spacingLeft=6;overflow=hidden;whiteSpace=wrap;html=1;rounded=1;labelBackgroundColor=none;strokeColor=#E07A5F;fontColor=#393C56;" vertex="1" parent="PDOGHzKi66E8nlf_EuT3-72">
          <mxGeometry x="99.99999999999977" width="170.00000000000023" height="33" as="geometry">
            <mxRectangle width="170.00000000000023" height="33" as="alternateBounds" />
          </mxGeometry>
        </mxCell>
        <mxCell id="PDOGHzKi66E8nlf_EuT3-75" value="" style="shape=tableRow;horizontal=0;startSize=0;swimlaneHead=0;swimlaneBody=0;fillColor=none;collapsible=0;dropTarget=0;points=[[0,0.5],[1,0.5]];portConstraint=eastwest;top=0;left=0;right=0;bottom=0;rounded=1;labelBackgroundColor=none;strokeColor=#E07A5F;fontColor=#393C56;" vertex="1" parent="PDOGHzKi66E8nlf_EuT3-68">
          <mxGeometry y="93" width="270" height="47" as="geometry" />
        </mxCell>
        <mxCell id="PDOGHzKi66E8nlf_EuT3-76" value="&lt;div style=&quot;background-color:#282c34;color:#abb2bf&quot;&gt;&lt;pre style=&quot;font-family:&#39;JetBrains Mono&#39;,monospace;font-size:9.8pt;&quot;&gt;varchar&lt;/pre&gt;&lt;/div&gt;" style="shape=partialRectangle;connectable=0;fillColor=none;top=0;left=0;bottom=0;right=0;editable=1;overflow=hidden;whiteSpace=wrap;html=1;rounded=1;labelBackgroundColor=none;strokeColor=#E07A5F;fontColor=#393C56;" vertex="1" parent="PDOGHzKi66E8nlf_EuT3-75">
          <mxGeometry width="99.99999999999977" height="47" as="geometry">
            <mxRectangle width="99.99999999999977" height="47" as="alternateBounds" />
          </mxGeometry>
        </mxCell>
        <mxCell id="PDOGHzKi66E8nlf_EuT3-77" value="&lt;div style=&quot;background-color:#282c34;color:#abb2bf&quot;&gt;&lt;pre style=&quot;font-family:&#39;JetBrains Mono&#39;,monospace;font-size:9.8pt;&quot;&gt;&lt;div&gt;&lt;pre style=&quot;font-family:&#39;JetBrains Mono&#39;,monospace;font-size:9.8pt;&quot;&gt;&lt;span style=&quot;color:#e06c75;&quot;&gt;additionalInformation&lt;/span&gt;&lt;/pre&gt;&lt;/div&gt;&lt;/pre&gt;&lt;/div&gt;" style="shape=partialRectangle;connectable=0;fillColor=none;top=0;left=0;bottom=0;right=0;align=left;spacingLeft=6;overflow=hidden;whiteSpace=wrap;html=1;rounded=1;labelBackgroundColor=none;strokeColor=#E07A5F;fontColor=#393C56;" vertex="1" parent="PDOGHzKi66E8nlf_EuT3-75">
          <mxGeometry x="99.99999999999977" width="170.00000000000023" height="47" as="geometry">
            <mxRectangle width="170.00000000000023" height="47" as="alternateBounds" />
          </mxGeometry>
        </mxCell>
        <mxCell id="PDOGHzKi66E8nlf_EuT3-95" value="Question" style="shape=table;startSize=30;container=1;collapsible=1;childLayout=tableLayout;fixedRows=1;rowLines=0;fontStyle=1;align=center;resizeLast=1;html=1;rounded=1;labelBackgroundColor=none;fillColor=#F2CC8F;strokeColor=#E07A5F;fontColor=#393C56;fillStyle=auto;swimlaneFillColor=#E7D0D0;" vertex="1" parent="1">
          <mxGeometry x="100" y="670" width="230" height="207.00000000000045" as="geometry" />
        </mxCell>
        <mxCell id="PDOGHzKi66E8nlf_EuT3-96" value="" style="shape=tableRow;horizontal=0;startSize=0;swimlaneHead=0;swimlaneBody=0;fillColor=none;collapsible=0;dropTarget=0;points=[[0,0.5],[1,0.5]];portConstraint=eastwest;top=0;left=0;right=0;bottom=1;rounded=1;labelBackgroundColor=none;strokeColor=#E07A5F;fontColor=#393C56;" vertex="1" parent="PDOGHzKi66E8nlf_EuT3-95">
          <mxGeometry y="30" width="230" height="40" as="geometry" />
        </mxCell>
        <mxCell id="PDOGHzKi66E8nlf_EuT3-97" value="&lt;div style=&quot;background-color:#282c34;color:#abb2bf&quot;&gt;&lt;pre style=&quot;font-family:&#39;JetBrains Mono&#39;,monospace;font-size:9.8pt;&quot;&gt;PK&lt;/pre&gt;&lt;/div&gt;" style="shape=partialRectangle;connectable=0;fillColor=none;top=0;left=0;bottom=0;right=0;fontStyle=1;overflow=hidden;whiteSpace=wrap;html=1;rounded=1;labelBackgroundColor=none;strokeColor=#E07A5F;fontColor=#393C56;" vertex="1" parent="PDOGHzKi66E8nlf_EuT3-96">
          <mxGeometry width="79" height="40" as="geometry">
            <mxRectangle width="79" height="40" as="alternateBounds" />
          </mxGeometry>
        </mxCell>
        <mxCell id="PDOGHzKi66E8nlf_EuT3-98" value="&lt;div style=&quot;background-color:#282c34;color:#abb2bf&quot;&gt;&lt;pre style=&quot;font-family:&#39;JetBrains Mono&#39;,monospace;font-size:9.8pt;&quot;&gt;&lt;span style=&quot;color:#e06c75;&quot;&gt;questionId&lt;/span&gt;&lt;/pre&gt;&lt;/div&gt;" style="shape=partialRectangle;connectable=0;fillColor=none;top=0;left=0;bottom=0;right=0;align=left;spacingLeft=6;fontStyle=5;overflow=hidden;whiteSpace=wrap;html=1;rounded=1;labelBackgroundColor=none;strokeColor=#E07A5F;fontColor=#393C56;" vertex="1" parent="PDOGHzKi66E8nlf_EuT3-96">
          <mxGeometry x="79" width="151" height="40" as="geometry">
            <mxRectangle width="151" height="40" as="alternateBounds" />
          </mxGeometry>
        </mxCell>
        <mxCell id="PDOGHzKi66E8nlf_EuT3-99" value="" style="shape=tableRow;horizontal=0;startSize=0;swimlaneHead=0;swimlaneBody=0;fillColor=none;collapsible=0;dropTarget=0;points=[[0,0.5],[1,0.5]];portConstraint=eastwest;top=0;left=0;right=0;bottom=0;rounded=1;labelBackgroundColor=none;strokeColor=#E07A5F;fontColor=#393C56;" vertex="1" parent="PDOGHzKi66E8nlf_EuT3-95">
          <mxGeometry y="70" width="230" height="30" as="geometry" />
        </mxCell>
        <mxCell id="PDOGHzKi66E8nlf_EuT3-100" value="&lt;div style=&quot;background-color:#282c34;color:#abb2bf&quot;&gt;&lt;pre style=&quot;font-family:&#39;JetBrains Mono&#39;,monospace;font-size:9.8pt;&quot;&gt;varchar&lt;/pre&gt;&lt;/div&gt;" style="shape=partialRectangle;connectable=0;fillColor=none;top=0;left=0;bottom=0;right=0;editable=1;overflow=hidden;whiteSpace=wrap;html=1;rounded=1;labelBackgroundColor=none;strokeColor=#E07A5F;fontColor=#393C56;" vertex="1" parent="PDOGHzKi66E8nlf_EuT3-99">
          <mxGeometry width="79" height="30" as="geometry">
            <mxRectangle width="79" height="30" as="alternateBounds" />
          </mxGeometry>
        </mxCell>
        <mxCell id="PDOGHzKi66E8nlf_EuT3-101" value="&lt;div style=&quot;background-color:#282c34;color:#abb2bf&quot;&gt;&lt;pre style=&quot;font-family:&#39;JetBrains Mono&#39;,monospace;font-size:9.8pt;&quot;&gt;&lt;div&gt;&lt;pre style=&quot;font-family:&#39;JetBrains Mono&#39;,monospace;font-size:9.8pt;&quot;&gt;&lt;span style=&quot;color:#e06c75;&quot;&gt;questionContent&lt;/span&gt;&lt;/pre&gt;&lt;/div&gt;&lt;/pre&gt;&lt;/div&gt;" style="shape=partialRectangle;connectable=0;fillColor=none;top=0;left=0;bottom=0;right=0;align=left;spacingLeft=6;overflow=hidden;whiteSpace=wrap;html=1;rounded=1;labelBackgroundColor=none;strokeColor=#E07A5F;fontColor=#393C56;" vertex="1" parent="PDOGHzKi66E8nlf_EuT3-99">
          <mxGeometry x="79" width="151" height="30" as="geometry">
            <mxRectangle width="151" height="30" as="alternateBounds" />
          </mxGeometry>
        </mxCell>
        <mxCell id="PDOGHzKi66E8nlf_EuT3-102" value="" style="shape=tableRow;horizontal=0;startSize=0;swimlaneHead=0;swimlaneBody=0;fillColor=none;collapsible=0;dropTarget=0;points=[[0,0.5],[1,0.5]];portConstraint=eastwest;top=0;left=0;right=0;bottom=0;rounded=1;labelBackgroundColor=none;strokeColor=#E07A5F;fontColor=#393C56;" vertex="1" parent="PDOGHzKi66E8nlf_EuT3-95">
          <mxGeometry y="100" width="230" height="30" as="geometry" />
        </mxCell>
        <mxCell id="PDOGHzKi66E8nlf_EuT3-103" value="&lt;div style=&quot;background-color:#282c34;color:#abb2bf&quot;&gt;&lt;pre style=&quot;font-family:&#39;JetBrains Mono&#39;,monospace;font-size:9.8pt;&quot;&gt;&lt;span style=&quot;color:#e5c07b;&quot;&gt;TEXT &lt;/span&gt;[]&lt;/pre&gt;&lt;/div&gt;" style="shape=partialRectangle;connectable=0;fillColor=none;top=0;left=0;bottom=0;right=0;editable=1;overflow=hidden;whiteSpace=wrap;html=1;rounded=1;labelBackgroundColor=none;strokeColor=#E07A5F;fontColor=#393C56;" vertex="1" parent="PDOGHzKi66E8nlf_EuT3-102">
          <mxGeometry width="79" height="30" as="geometry">
            <mxRectangle width="79" height="30" as="alternateBounds" />
          </mxGeometry>
        </mxCell>
        <mxCell id="PDOGHzKi66E8nlf_EuT3-104" value="&lt;div style=&quot;background-color:#282c34;color:#abb2bf&quot;&gt;&lt;pre style=&quot;font-family:&#39;JetBrains Mono&#39;,monospace;font-size:9.8pt;&quot;&gt;&lt;pre style=&quot;font-family:&#39;JetBrains Mono&#39;,monospace;font-size:9.8pt;&quot;&gt;&lt;pre style=&quot;font-family:&#39;JetBrains Mono&#39;,monospace;font-size:9.8pt;&quot;&gt;&lt;div&gt;&lt;pre style=&quot;font-family:&#39;JetBrains Mono&#39;,monospace;font-size:9.8pt;&quot;&gt;&lt;span style=&quot;color:#e06c75;&quot;&gt;possibleResponses&lt;/span&gt;&lt;/pre&gt;&lt;/div&gt;&lt;/pre&gt;&lt;/pre&gt;&lt;/pre&gt;&lt;/div&gt;" style="shape=partialRectangle;connectable=0;fillColor=none;top=0;left=0;bottom=0;right=0;align=left;spacingLeft=6;overflow=hidden;whiteSpace=wrap;html=1;rounded=1;labelBackgroundColor=none;strokeColor=#E07A5F;fontColor=#393C56;" vertex="1" parent="PDOGHzKi66E8nlf_EuT3-102">
          <mxGeometry x="79" width="151" height="30" as="geometry">
            <mxRectangle width="151" height="30" as="alternateBounds" />
          </mxGeometry>
        </mxCell>
        <mxCell id="PDOGHzKi66E8nlf_EuT3-105" value="" style="shape=tableRow;horizontal=0;startSize=0;swimlaneHead=0;swimlaneBody=0;fillColor=none;collapsible=0;dropTarget=0;points=[[0,0.5],[1,0.5]];portConstraint=eastwest;top=0;left=0;right=0;bottom=0;rounded=1;labelBackgroundColor=none;strokeColor=#E07A5F;fontColor=#393C56;" vertex="1" parent="PDOGHzKi66E8nlf_EuT3-95">
          <mxGeometry y="130" width="230" height="30" as="geometry" />
        </mxCell>
        <mxCell id="PDOGHzKi66E8nlf_EuT3-106" value="&lt;div style=&quot;background-color:#282c34;color:#abb2bf&quot;&gt;&lt;pre style=&quot;font-family:&#39;JetBrains Mono&#39;,monospace;font-size:9.8pt;&quot;&gt;varchar&lt;/pre&gt;&lt;/div&gt;" style="shape=partialRectangle;connectable=0;fillColor=none;top=0;left=0;bottom=0;right=0;editable=1;overflow=hidden;whiteSpace=wrap;html=1;rounded=1;labelBackgroundColor=none;strokeColor=#E07A5F;fontColor=#393C56;" vertex="1" parent="PDOGHzKi66E8nlf_EuT3-105">
          <mxGeometry width="79" height="30" as="geometry">
            <mxRectangle width="79" height="30" as="alternateBounds" />
          </mxGeometry>
        </mxCell>
        <mxCell id="PDOGHzKi66E8nlf_EuT3-107" value="&lt;div style=&quot;background-color:#282c34;color:#abb2bf&quot;&gt;&lt;pre style=&quot;font-family:&#39;JetBrains Mono&#39;,monospace;font-size:9.8pt;&quot;&gt;&lt;div&gt;&lt;pre style=&quot;font-family:&#39;JetBrains Mono&#39;,monospace;font-size:9.8pt;&quot;&gt;&lt;span style=&quot;color:#e06c75;&quot;&gt;chosenResponse&lt;/span&gt;&lt;/pre&gt;&lt;/div&gt;&lt;/pre&gt;&lt;/div&gt;" style="shape=partialRectangle;connectable=0;fillColor=none;top=0;left=0;bottom=0;right=0;align=left;spacingLeft=6;overflow=hidden;whiteSpace=wrap;html=1;rounded=1;labelBackgroundColor=none;strokeColor=#E07A5F;fontColor=#393C56;" vertex="1" parent="PDOGHzKi66E8nlf_EuT3-105">
          <mxGeometry x="79" width="151" height="30" as="geometry">
            <mxRectangle width="151" height="30" as="alternateBounds" />
          </mxGeometry>
        </mxCell>
        <mxCell id="PDOGHzKi66E8nlf_EuT3-147" style="shape=tableRow;horizontal=0;startSize=0;swimlaneHead=0;swimlaneBody=0;fillColor=none;collapsible=0;dropTarget=0;points=[[0,0.5],[1,0.5]];portConstraint=eastwest;top=0;left=0;right=0;bottom=0;rounded=1;labelBackgroundColor=none;strokeColor=#E07A5F;fontColor=#393C56;" vertex="1" parent="PDOGHzKi66E8nlf_EuT3-95">
          <mxGeometry y="160" width="230" height="30" as="geometry" />
        </mxCell>
        <mxCell id="PDOGHzKi66E8nlf_EuT3-148" value="&lt;div style=&quot;background-color:#282c34;color:#abb2bf&quot;&gt;&lt;pre style=&quot;font-family:&#39;JetBrains Mono&#39;,monospace;font-size:9.8pt;&quot;&gt;BigInt&lt;/pre&gt;&lt;/div&gt;" style="shape=partialRectangle;connectable=0;fillColor=none;top=0;left=0;bottom=0;right=0;editable=1;overflow=hidden;whiteSpace=wrap;html=1;rounded=1;labelBackgroundColor=none;strokeColor=#E07A5F;fontColor=#393C56;" vertex="1" parent="PDOGHzKi66E8nlf_EuT3-147">
          <mxGeometry width="79" height="30" as="geometry">
            <mxRectangle width="79" height="30" as="alternateBounds" />
          </mxGeometry>
        </mxCell>
        <mxCell id="PDOGHzKi66E8nlf_EuT3-149" value="&lt;div style=&quot;background-color:#282c34;color:#abb2bf&quot;&gt;&lt;pre style=&quot;font-family:&#39;JetBrains Mono&#39;,monospace;font-size:9.8pt;&quot;&gt;&lt;span style=&quot;color:#e06c75;&quot;&gt;exercise_id&lt;/span&gt;&lt;/pre&gt;&lt;/div&gt;" style="shape=partialRectangle;connectable=0;fillColor=none;top=0;left=0;bottom=0;right=0;align=left;spacingLeft=6;overflow=hidden;whiteSpace=wrap;html=1;rounded=1;labelBackgroundColor=none;strokeColor=#E07A5F;fontColor=#393C56;" vertex="1" parent="PDOGHzKi66E8nlf_EuT3-147">
          <mxGeometry x="79" width="151" height="30" as="geometry">
            <mxRectangle width="151" height="30" as="alternateBounds" />
          </mxGeometry>
        </mxCell>
        <mxCell id="PDOGHzKi66E8nlf_EuT3-128" value="Exercise" style="shape=table;startSize=30;container=1;collapsible=1;childLayout=tableLayout;fixedRows=1;rowLines=0;fontStyle=1;align=center;resizeLast=1;html=1;rounded=1;labelBackgroundColor=none;fillColor=#F2CC8F;strokeColor=#E07A5F;fontColor=#393C56;swimlaneFillColor=#E7D0D0;" vertex="1" parent="1">
          <mxGeometry x="560" y="670" width="189" height="177" as="geometry" />
        </mxCell>
        <mxCell id="PDOGHzKi66E8nlf_EuT3-129" value="" style="shape=tableRow;horizontal=0;startSize=0;swimlaneHead=0;swimlaneBody=0;fillColor=none;collapsible=0;dropTarget=0;points=[[0,0.5],[1,0.5]];portConstraint=eastwest;top=0;left=0;right=0;bottom=1;rounded=1;labelBackgroundColor=none;strokeColor=#E07A5F;fontColor=#393C56;" vertex="1" parent="PDOGHzKi66E8nlf_EuT3-128">
          <mxGeometry y="30" width="189" height="30" as="geometry" />
        </mxCell>
        <mxCell id="PDOGHzKi66E8nlf_EuT3-130" value="&lt;div style=&quot;background-color:#282c34;color:#abb2bf&quot;&gt;&lt;pre style=&quot;font-family:&#39;JetBrains Mono&#39;,monospace;font-size:9.8pt;&quot;&gt;PK&lt;/pre&gt;&lt;/div&gt;" style="shape=partialRectangle;connectable=0;fillColor=none;top=0;left=0;bottom=0;right=0;fontStyle=1;overflow=hidden;whiteSpace=wrap;html=1;rounded=1;labelBackgroundColor=none;strokeColor=#E07A5F;fontColor=#393C56;" vertex="1" parent="PDOGHzKi66E8nlf_EuT3-129">
          <mxGeometry width="79" height="30" as="geometry">
            <mxRectangle width="79" height="30" as="alternateBounds" />
          </mxGeometry>
        </mxCell>
        <mxCell id="PDOGHzKi66E8nlf_EuT3-131" value="&lt;div style=&quot;background-color:#282c34;color:#abb2bf&quot;&gt;&lt;pre style=&quot;font-family:&#39;JetBrains Mono&#39;,monospace;font-size:9.8pt;&quot;&gt;&lt;span style=&quot;color:#e06c75;&quot;&gt;exerciseId&lt;/span&gt;&lt;/pre&gt;&lt;/div&gt;" style="shape=partialRectangle;connectable=0;fillColor=none;top=0;left=0;bottom=0;right=0;align=left;spacingLeft=6;fontStyle=5;overflow=hidden;whiteSpace=wrap;html=1;rounded=1;labelBackgroundColor=none;strokeColor=#E07A5F;fontColor=#393C56;" vertex="1" parent="PDOGHzKi66E8nlf_EuT3-129">
          <mxGeometry x="79" width="110" height="30" as="geometry">
            <mxRectangle width="110" height="30" as="alternateBounds" />
          </mxGeometry>
        </mxCell>
        <mxCell id="PDOGHzKi66E8nlf_EuT3-132" value="" style="shape=tableRow;horizontal=0;startSize=0;swimlaneHead=0;swimlaneBody=0;fillColor=none;collapsible=0;dropTarget=0;points=[[0,0.5],[1,0.5]];portConstraint=eastwest;top=0;left=0;right=0;bottom=0;rounded=1;labelBackgroundColor=none;strokeColor=#E07A5F;fontColor=#393C56;" vertex="1" parent="PDOGHzKi66E8nlf_EuT3-128">
          <mxGeometry y="60" width="189" height="33" as="geometry" />
        </mxCell>
        <mxCell id="PDOGHzKi66E8nlf_EuT3-133" value="&lt;div style=&quot;background-color:#282c34;color:#abb2bf&quot;&gt;&lt;pre style=&quot;font-family:&#39;JetBrains Mono&#39;,monospace;font-size:9.8pt;&quot;&gt;varchar&lt;/pre&gt;&lt;/div&gt;" style="shape=partialRectangle;connectable=0;fillColor=none;top=0;left=0;bottom=0;right=0;editable=1;overflow=hidden;whiteSpace=wrap;html=1;rounded=1;labelBackgroundColor=none;strokeColor=#E07A5F;fontColor=#393C56;" vertex="1" parent="PDOGHzKi66E8nlf_EuT3-132">
          <mxGeometry width="79" height="33" as="geometry">
            <mxRectangle width="79" height="33" as="alternateBounds" />
          </mxGeometry>
        </mxCell>
        <mxCell id="PDOGHzKi66E8nlf_EuT3-134" value="&lt;div style=&quot;background-color:#282c34;color:#abb2bf&quot;&gt;&lt;pre style=&quot;font-family:&#39;JetBrains Mono&#39;,monospace;font-size:9.8pt;&quot;&gt;&lt;span style=&quot;color:#e06c75;&quot;&gt;title&lt;/span&gt;&lt;/pre&gt;&lt;/div&gt;" style="shape=partialRectangle;connectable=0;fillColor=none;top=0;left=0;bottom=0;right=0;align=left;spacingLeft=6;overflow=hidden;whiteSpace=wrap;html=1;rounded=1;labelBackgroundColor=none;strokeColor=#E07A5F;fontColor=#393C56;" vertex="1" parent="PDOGHzKi66E8nlf_EuT3-132">
          <mxGeometry x="79" width="110" height="33" as="geometry">
            <mxRectangle width="110" height="33" as="alternateBounds" />
          </mxGeometry>
        </mxCell>
        <mxCell id="PDOGHzKi66E8nlf_EuT3-141" style="shape=tableRow;horizontal=0;startSize=0;swimlaneHead=0;swimlaneBody=0;fillColor=none;collapsible=0;dropTarget=0;points=[[0,0.5],[1,0.5]];portConstraint=eastwest;top=0;left=0;right=0;bottom=0;rounded=1;labelBackgroundColor=none;strokeColor=#E07A5F;fontColor=#393C56;" vertex="1" parent="PDOGHzKi66E8nlf_EuT3-128">
          <mxGeometry y="93" width="189" height="33" as="geometry" />
        </mxCell>
        <mxCell id="PDOGHzKi66E8nlf_EuT3-142" value="&lt;div style=&quot;background-color:#282c34;color:#abb2bf&quot;&gt;&lt;pre style=&quot;font-family:&#39;JetBrains Mono&#39;,monospace;font-size:9.8pt;&quot;&gt;FK&lt;/pre&gt;&lt;/div&gt;" style="shape=partialRectangle;connectable=0;fillColor=none;top=0;left=0;bottom=0;right=0;editable=1;overflow=hidden;whiteSpace=wrap;html=1;rounded=1;labelBackgroundColor=none;strokeColor=#E07A5F;fontColor=#393C56;" vertex="1" parent="PDOGHzKi66E8nlf_EuT3-141">
          <mxGeometry width="79" height="33" as="geometry">
            <mxRectangle width="79" height="33" as="alternateBounds" />
          </mxGeometry>
        </mxCell>
        <mxCell id="PDOGHzKi66E8nlf_EuT3-143" value="&lt;div style=&quot;background-color:#282c34;color:#abb2bf&quot;&gt;&lt;pre style=&quot;font-family:&#39;JetBrains Mono&#39;,monospace;font-size:9.8pt;&quot;&gt;&lt;span style=&quot;color:#e06c75;&quot;&gt;apprenticeId&lt;/span&gt;&lt;/pre&gt;&lt;/div&gt;" style="shape=partialRectangle;connectable=0;fillColor=none;top=0;left=0;bottom=0;right=0;align=left;spacingLeft=6;overflow=hidden;whiteSpace=wrap;html=1;rounded=1;labelBackgroundColor=none;strokeColor=#E07A5F;fontColor=#393C56;" vertex="1" parent="PDOGHzKi66E8nlf_EuT3-141">
          <mxGeometry x="79" width="110" height="33" as="geometry">
            <mxRectangle width="110" height="33" as="alternateBounds" />
          </mxGeometry>
        </mxCell>
        <mxCell id="PDOGHzKi66E8nlf_EuT3-144" style="shape=tableRow;horizontal=0;startSize=0;swimlaneHead=0;swimlaneBody=0;fillColor=none;collapsible=0;dropTarget=0;points=[[0,0.5],[1,0.5]];portConstraint=eastwest;top=0;left=0;right=0;bottom=0;rounded=1;labelBackgroundColor=none;strokeColor=#E07A5F;fontColor=#393C56;" vertex="1" parent="PDOGHzKi66E8nlf_EuT3-128">
          <mxGeometry y="126" width="189" height="34" as="geometry" />
        </mxCell>
        <mxCell id="PDOGHzKi66E8nlf_EuT3-145" value="&lt;div style=&quot;background-color:#282c34;color:#abb2bf&quot;&gt;&lt;pre style=&quot;font-family:&#39;JetBrains Mono&#39;,monospace;font-size:9.8pt;&quot;&gt;&lt;span style=&quot;color:#e5c07b;&quot;&gt;Integer&lt;/span&gt;[]&lt;/pre&gt;&lt;/div&gt;" style="shape=partialRectangle;connectable=0;fillColor=none;top=0;left=0;bottom=0;right=0;editable=1;overflow=hidden;whiteSpace=wrap;html=1;rounded=1;labelBackgroundColor=none;strokeColor=#E07A5F;fontColor=#393C56;" vertex="1" parent="PDOGHzKi66E8nlf_EuT3-144">
          <mxGeometry width="79" height="34" as="geometry">
            <mxRectangle width="79" height="34" as="alternateBounds" />
          </mxGeometry>
        </mxCell>
        <mxCell id="PDOGHzKi66E8nlf_EuT3-146" value="&lt;div style=&quot;background-color:#282c34;color:#abb2bf&quot;&gt;&lt;pre style=&quot;font-family:&#39;JetBrains Mono&#39;,monospace;font-size:9.8pt;&quot;&gt;&lt;span style=&quot;color:#e06c75;&quot;&gt;pagination&lt;/span&gt;&lt;/pre&gt;&lt;/div&gt;" style="shape=partialRectangle;connectable=0;fillColor=none;top=0;left=0;bottom=0;right=0;align=left;spacingLeft=6;overflow=hidden;whiteSpace=wrap;html=1;rounded=1;labelBackgroundColor=none;strokeColor=#E07A5F;fontColor=#393C56;" vertex="1" parent="PDOGHzKi66E8nlf_EuT3-144">
          <mxGeometry x="79" width="110" height="34" as="geometry">
            <mxRectangle width="110" height="34" as="alternateBounds" />
          </mxGeometry>
        </mxCell>
        <mxCell id="PDOGHzKi66E8nlf_EuT3-150" style="edgeStyle=orthogonalEdgeStyle;rounded=0;orthogonalLoop=1;jettySize=auto;html=1;entryX=0;entryY=0.5;entryDx=0;entryDy=0;strokeColor=#E07A5F;fontColor=default;labelBackgroundColor=none;" edge="1" parent="1" source="PDOGHzKi66E8nlf_EuT3-147" target="PDOGHzKi66E8nlf_EuT3-129">
          <mxGeometry relative="1" as="geometry" />
        </mxCell>
        <mxCell id="PDOGHzKi66E8nlf_EuT3-151" value="Quiz" style="shape=table;startSize=30;container=1;collapsible=1;childLayout=tableLayout;fixedRows=1;rowLines=0;fontStyle=1;align=center;resizeLast=1;html=1;rounded=1;labelBackgroundColor=none;fillColor=#F2CC8F;strokeColor=#E07A5F;fontColor=#393C56;swimlaneFillColor=#E7D0D0;" vertex="1" parent="1">
          <mxGeometry x="140" y="1030" width="190" height="147" as="geometry" />
        </mxCell>
        <mxCell id="PDOGHzKi66E8nlf_EuT3-152" value="" style="shape=tableRow;horizontal=0;startSize=0;swimlaneHead=0;swimlaneBody=0;fillColor=none;collapsible=0;dropTarget=0;points=[[0,0.5],[1,0.5]];portConstraint=eastwest;top=0;left=0;right=0;bottom=1;rounded=1;labelBackgroundColor=none;strokeColor=#E07A5F;fontColor=#393C56;" vertex="1" parent="PDOGHzKi66E8nlf_EuT3-151">
          <mxGeometry y="30" width="190" height="30" as="geometry" />
        </mxCell>
        <mxCell id="PDOGHzKi66E8nlf_EuT3-153" value="&lt;div style=&quot;background-color:#282c34;color:#abb2bf&quot;&gt;&lt;pre style=&quot;font-family:&#39;JetBrains Mono&#39;,monospace;font-size:9.8pt;&quot;&gt;PK&lt;/pre&gt;&lt;/div&gt;" style="shape=partialRectangle;connectable=0;fillColor=none;top=0;left=0;bottom=0;right=0;fontStyle=1;overflow=hidden;whiteSpace=wrap;html=1;rounded=1;labelBackgroundColor=none;strokeColor=#E07A5F;fontColor=#393C56;" vertex="1" parent="PDOGHzKi66E8nlf_EuT3-152">
          <mxGeometry width="79" height="30" as="geometry">
            <mxRectangle width="79" height="30" as="alternateBounds" />
          </mxGeometry>
        </mxCell>
        <mxCell id="PDOGHzKi66E8nlf_EuT3-154" value="&lt;div style=&quot;background-color:#282c34;color:#abb2bf&quot;&gt;&lt;pre style=&quot;font-family:&#39;JetBrains Mono&#39;,monospace;font-size:9.8pt;&quot;&gt;&lt;span style=&quot;color:#e06c75;&quot;&gt;quizID&lt;/span&gt;&lt;/pre&gt;&lt;/div&gt;" style="shape=partialRectangle;connectable=0;fillColor=none;top=0;left=0;bottom=0;right=0;align=left;spacingLeft=6;fontStyle=5;overflow=hidden;whiteSpace=wrap;html=1;rounded=1;labelBackgroundColor=none;strokeColor=#E07A5F;fontColor=#393C56;" vertex="1" parent="PDOGHzKi66E8nlf_EuT3-152">
          <mxGeometry x="79" width="111" height="30" as="geometry">
            <mxRectangle width="111" height="30" as="alternateBounds" />
          </mxGeometry>
        </mxCell>
        <mxCell id="PDOGHzKi66E8nlf_EuT3-155" value="" style="shape=tableRow;horizontal=0;startSize=0;swimlaneHead=0;swimlaneBody=0;fillColor=none;collapsible=0;dropTarget=0;points=[[0,0.5],[1,0.5]];portConstraint=eastwest;top=0;left=0;right=0;bottom=0;rounded=1;labelBackgroundColor=none;strokeColor=#E07A5F;fontColor=#393C56;" vertex="1" parent="PDOGHzKi66E8nlf_EuT3-151">
          <mxGeometry y="60" width="190" height="33" as="geometry" />
        </mxCell>
        <mxCell id="PDOGHzKi66E8nlf_EuT3-156" value="&lt;div style=&quot;background-color:#282c34;color:#abb2bf&quot;&gt;&lt;pre style=&quot;font-family:&#39;JetBrains Mono&#39;,monospace;font-size:9.8pt;&quot;&gt;FK&lt;/pre&gt;&lt;/div&gt;" style="shape=partialRectangle;connectable=0;fillColor=none;top=0;left=0;bottom=0;right=0;editable=1;overflow=hidden;whiteSpace=wrap;html=1;rounded=1;labelBackgroundColor=none;strokeColor=#E07A5F;fontColor=#393C56;" vertex="1" parent="PDOGHzKi66E8nlf_EuT3-155">
          <mxGeometry width="79" height="33" as="geometry">
            <mxRectangle width="79" height="33" as="alternateBounds" />
          </mxGeometry>
        </mxCell>
        <mxCell id="PDOGHzKi66E8nlf_EuT3-157" value="&lt;div style=&quot;background-color:#282c34;color:#abb2bf&quot;&gt;&lt;pre style=&quot;font-family:&#39;JetBrains Mono&#39;,monospace;font-size:9.8pt;&quot;&gt;&lt;span style=&quot;color:#e06c75;&quot;&gt;exerciseID&lt;/span&gt;&lt;/pre&gt;&lt;/div&gt;" style="shape=partialRectangle;connectable=0;fillColor=none;top=0;left=0;bottom=0;right=0;align=left;spacingLeft=6;overflow=hidden;whiteSpace=wrap;html=1;rounded=1;labelBackgroundColor=none;strokeColor=#E07A5F;fontColor=#393C56;" vertex="1" parent="PDOGHzKi66E8nlf_EuT3-155">
          <mxGeometry x="79" width="111" height="33" as="geometry">
            <mxRectangle width="111" height="33" as="alternateBounds" />
          </mxGeometry>
        </mxCell>
        <mxCell id="PDOGHzKi66E8nlf_EuT3-158" style="shape=tableRow;horizontal=0;startSize=0;swimlaneHead=0;swimlaneBody=0;fillColor=none;collapsible=0;dropTarget=0;points=[[0,0.5],[1,0.5]];portConstraint=eastwest;top=0;left=0;right=0;bottom=0;rounded=1;labelBackgroundColor=none;strokeColor=#E07A5F;fontColor=#393C56;" vertex="1" parent="PDOGHzKi66E8nlf_EuT3-151">
          <mxGeometry y="93" width="190" height="37" as="geometry" />
        </mxCell>
        <mxCell id="PDOGHzKi66E8nlf_EuT3-159" value="&lt;div style=&quot;background-color:#282c34;color:#abb2bf&quot;&gt;&lt;pre style=&quot;font-family:&#39;JetBrains Mono&#39;,monospace;font-size:9.8pt;&quot;&gt;TEXT []&lt;/pre&gt;&lt;/div&gt;" style="shape=partialRectangle;connectable=0;fillColor=none;top=0;left=0;bottom=0;right=0;editable=1;overflow=hidden;whiteSpace=wrap;html=1;rounded=1;labelBackgroundColor=none;strokeColor=#E07A5F;fontColor=#393C56;" vertex="1" parent="PDOGHzKi66E8nlf_EuT3-158">
          <mxGeometry width="79" height="37" as="geometry">
            <mxRectangle width="79" height="37" as="alternateBounds" />
          </mxGeometry>
        </mxCell>
        <mxCell id="PDOGHzKi66E8nlf_EuT3-160" value="&lt;div style=&quot;background-color:#282c34;color:#abb2bf&quot;&gt;&lt;pre style=&quot;font-family:&#39;JetBrains Mono&#39;,monospace;font-size:9.8pt;&quot;&gt;&lt;span style=&quot;color:#e06c75;&quot;&gt;rules&lt;/span&gt;&lt;/pre&gt;&lt;/div&gt;" style="shape=partialRectangle;connectable=0;fillColor=none;top=0;left=0;bottom=0;right=0;align=left;spacingLeft=6;overflow=hidden;whiteSpace=wrap;html=1;rounded=1;labelBackgroundColor=none;strokeColor=#E07A5F;fontColor=#393C56;" vertex="1" parent="PDOGHzKi66E8nlf_EuT3-158">
          <mxGeometry x="79" width="111" height="37" as="geometry">
            <mxRectangle width="111" height="37" as="alternateBounds" />
          </mxGeometry>
        </mxCell>
        <mxCell id="PDOGHzKi66E8nlf_EuT3-166" value="Flashcard" style="shape=table;startSize=30;container=1;collapsible=1;childLayout=tableLayout;fixedRows=1;rowLines=0;fontStyle=1;align=center;resizeLast=1;html=1;rounded=1;labelBackgroundColor=none;fillColor=#F2CC8F;strokeColor=#E07A5F;fontColor=#393C56;swimlaneFillColor=#E7D0D0;" vertex="1" parent="1">
          <mxGeometry x="720" y="1050" width="190" height="110" as="geometry" />
        </mxCell>
        <mxCell id="PDOGHzKi66E8nlf_EuT3-167" value="" style="shape=tableRow;horizontal=0;startSize=0;swimlaneHead=0;swimlaneBody=0;fillColor=none;collapsible=0;dropTarget=0;points=[[0,0.5],[1,0.5]];portConstraint=eastwest;top=0;left=0;right=0;bottom=1;rounded=1;labelBackgroundColor=none;strokeColor=#E07A5F;fontColor=#393C56;" vertex="1" parent="PDOGHzKi66E8nlf_EuT3-166">
          <mxGeometry y="30" width="190" height="30" as="geometry" />
        </mxCell>
        <mxCell id="PDOGHzKi66E8nlf_EuT3-168" value="&lt;div style=&quot;background-color:#282c34;color:#abb2bf&quot;&gt;&lt;pre style=&quot;font-family:&#39;JetBrains Mono&#39;,monospace;font-size:9.8pt;&quot;&gt;PK&lt;/pre&gt;&lt;/div&gt;" style="shape=partialRectangle;connectable=0;fillColor=none;top=0;left=0;bottom=0;right=0;fontStyle=1;overflow=hidden;whiteSpace=wrap;html=1;rounded=1;labelBackgroundColor=none;strokeColor=#E07A5F;fontColor=#393C56;" vertex="1" parent="PDOGHzKi66E8nlf_EuT3-167">
          <mxGeometry width="79" height="30" as="geometry">
            <mxRectangle width="79" height="30" as="alternateBounds" />
          </mxGeometry>
        </mxCell>
        <mxCell id="PDOGHzKi66E8nlf_EuT3-169" value="&lt;div style=&quot;background-color:#282c34;color:#abb2bf&quot;&gt;&lt;pre style=&quot;font-family:&#39;JetBrains Mono&#39;,monospace;font-size:9.8pt;&quot;&gt;&lt;span style=&quot;color:#e06c75;&quot;&gt;flashcardId&lt;/span&gt;&lt;/pre&gt;&lt;/div&gt;" style="shape=partialRectangle;connectable=0;fillColor=none;top=0;left=0;bottom=0;right=0;align=left;spacingLeft=6;fontStyle=5;overflow=hidden;whiteSpace=wrap;html=1;rounded=1;labelBackgroundColor=none;strokeColor=#E07A5F;fontColor=#393C56;" vertex="1" parent="PDOGHzKi66E8nlf_EuT3-167">
          <mxGeometry x="79" width="111" height="30" as="geometry">
            <mxRectangle width="111" height="30" as="alternateBounds" />
          </mxGeometry>
        </mxCell>
        <mxCell id="PDOGHzKi66E8nlf_EuT3-170" value="" style="shape=tableRow;horizontal=0;startSize=0;swimlaneHead=0;swimlaneBody=0;fillColor=none;collapsible=0;dropTarget=0;points=[[0,0.5],[1,0.5]];portConstraint=eastwest;top=0;left=0;right=0;bottom=0;rounded=1;labelBackgroundColor=none;strokeColor=#E07A5F;fontColor=#393C56;" vertex="1" parent="PDOGHzKi66E8nlf_EuT3-166">
          <mxGeometry y="60" width="190" height="33" as="geometry" />
        </mxCell>
        <mxCell id="PDOGHzKi66E8nlf_EuT3-171" value="&lt;div style=&quot;background-color:#282c34;color:#abb2bf&quot;&gt;&lt;pre style=&quot;font-family:&#39;JetBrains Mono&#39;,monospace;font-size:9.8pt;&quot;&gt;FK&lt;/pre&gt;&lt;/div&gt;" style="shape=partialRectangle;connectable=0;fillColor=none;top=0;left=0;bottom=0;right=0;editable=1;overflow=hidden;whiteSpace=wrap;html=1;rounded=1;labelBackgroundColor=none;strokeColor=#E07A5F;fontColor=#393C56;" vertex="1" parent="PDOGHzKi66E8nlf_EuT3-170">
          <mxGeometry width="79" height="33" as="geometry">
            <mxRectangle width="79" height="33" as="alternateBounds" />
          </mxGeometry>
        </mxCell>
        <mxCell id="PDOGHzKi66E8nlf_EuT3-172" value="&lt;div style=&quot;background-color:#282c34;color:#abb2bf&quot;&gt;&lt;pre style=&quot;font-family:&#39;JetBrains Mono&#39;,monospace;font-size:9.8pt;&quot;&gt;&lt;span style=&quot;color:#e06c75;&quot;&gt;exerciseID&lt;/span&gt;&lt;/pre&gt;&lt;/div&gt;" style="shape=partialRectangle;connectable=0;fillColor=none;top=0;left=0;bottom=0;right=0;align=left;spacingLeft=6;overflow=hidden;whiteSpace=wrap;html=1;rounded=1;labelBackgroundColor=none;strokeColor=#E07A5F;fontColor=#393C56;" vertex="1" parent="PDOGHzKi66E8nlf_EuT3-170">
          <mxGeometry x="79" width="111" height="33" as="geometry">
            <mxRectangle width="111" height="33" as="alternateBounds" />
          </mxGeometry>
        </mxCell>
        <mxCell id="PDOGHzKi66E8nlf_EuT3-179" value="KnowleadgeTest" style="shape=table;startSize=30;container=1;collapsible=1;childLayout=tableLayout;fixedRows=1;rowLines=0;fontStyle=1;align=center;resizeLast=1;html=1;rounded=1;labelBackgroundColor=none;fillColor=#F2CC8F;strokeColor=#E07A5F;fontColor=#393C56;swimlaneFillColor=#E7D0D0;" vertex="1" parent="1">
          <mxGeometry x="430" y="1050" width="190" height="110" as="geometry" />
        </mxCell>
        <mxCell id="PDOGHzKi66E8nlf_EuT3-180" value="" style="shape=tableRow;horizontal=0;startSize=0;swimlaneHead=0;swimlaneBody=0;fillColor=none;collapsible=0;dropTarget=0;points=[[0,0.5],[1,0.5]];portConstraint=eastwest;top=0;left=0;right=0;bottom=1;rounded=1;labelBackgroundColor=none;strokeColor=#E07A5F;fontColor=#393C56;" vertex="1" parent="PDOGHzKi66E8nlf_EuT3-179">
          <mxGeometry y="30" width="190" height="30" as="geometry" />
        </mxCell>
        <mxCell id="PDOGHzKi66E8nlf_EuT3-181" value="&lt;div style=&quot;background-color:#282c34;color:#abb2bf&quot;&gt;&lt;pre style=&quot;font-family:&#39;JetBrains Mono&#39;,monospace;font-size:9.8pt;&quot;&gt;PK&lt;/pre&gt;&lt;/div&gt;" style="shape=partialRectangle;connectable=0;fillColor=none;top=0;left=0;bottom=0;right=0;fontStyle=1;overflow=hidden;whiteSpace=wrap;html=1;rounded=1;labelBackgroundColor=none;strokeColor=#E07A5F;fontColor=#393C56;" vertex="1" parent="PDOGHzKi66E8nlf_EuT3-180">
          <mxGeometry width="79" height="30" as="geometry">
            <mxRectangle width="79" height="30" as="alternateBounds" />
          </mxGeometry>
        </mxCell>
        <mxCell id="PDOGHzKi66E8nlf_EuT3-182" value="&lt;div style=&quot;background-color:#282c34;color:#abb2bf&quot;&gt;&lt;pre style=&quot;font-family:&#39;JetBrains Mono&#39;,monospace;font-size:9.8pt;&quot;&gt;&lt;div&gt;&lt;pre style=&quot;font-family:&#39;JetBrains Mono&#39;,monospace;font-size:9.8pt;&quot;&gt;&lt;span style=&quot;color:#e06c75;&quot;&gt;testId&lt;/span&gt;&lt;/pre&gt;&lt;/div&gt;&lt;/pre&gt;&lt;/div&gt;" style="shape=partialRectangle;connectable=0;fillColor=none;top=0;left=0;bottom=0;right=0;align=left;spacingLeft=6;fontStyle=5;overflow=hidden;whiteSpace=wrap;html=1;rounded=1;labelBackgroundColor=none;strokeColor=#E07A5F;fontColor=#393C56;" vertex="1" parent="PDOGHzKi66E8nlf_EuT3-180">
          <mxGeometry x="79" width="111" height="30" as="geometry">
            <mxRectangle width="111" height="30" as="alternateBounds" />
          </mxGeometry>
        </mxCell>
        <mxCell id="PDOGHzKi66E8nlf_EuT3-183" value="" style="shape=tableRow;horizontal=0;startSize=0;swimlaneHead=0;swimlaneBody=0;fillColor=none;collapsible=0;dropTarget=0;points=[[0,0.5],[1,0.5]];portConstraint=eastwest;top=0;left=0;right=0;bottom=0;rounded=1;labelBackgroundColor=none;strokeColor=#E07A5F;fontColor=#393C56;" vertex="1" parent="PDOGHzKi66E8nlf_EuT3-179">
          <mxGeometry y="60" width="190" height="33" as="geometry" />
        </mxCell>
        <mxCell id="PDOGHzKi66E8nlf_EuT3-184" value="&lt;div style=&quot;background-color:#282c34;color:#abb2bf&quot;&gt;&lt;pre style=&quot;font-family:&#39;JetBrains Mono&#39;,monospace;font-size:9.8pt;&quot;&gt;FK&lt;/pre&gt;&lt;/div&gt;" style="shape=partialRectangle;connectable=0;fillColor=none;top=0;left=0;bottom=0;right=0;editable=1;overflow=hidden;whiteSpace=wrap;html=1;rounded=1;labelBackgroundColor=none;strokeColor=#E07A5F;fontColor=#393C56;" vertex="1" parent="PDOGHzKi66E8nlf_EuT3-183">
          <mxGeometry width="79" height="33" as="geometry">
            <mxRectangle width="79" height="33" as="alternateBounds" />
          </mxGeometry>
        </mxCell>
        <mxCell id="PDOGHzKi66E8nlf_EuT3-185" value="&lt;div style=&quot;background-color:#282c34;color:#abb2bf&quot;&gt;&lt;pre style=&quot;font-family:&#39;JetBrains Mono&#39;,monospace;font-size:9.8pt;&quot;&gt;&lt;span style=&quot;color:#e06c75;&quot;&gt;exerciseID&lt;/span&gt;&lt;/pre&gt;&lt;/div&gt;" style="shape=partialRectangle;connectable=0;fillColor=none;top=0;left=0;bottom=0;right=0;align=left;spacingLeft=6;overflow=hidden;whiteSpace=wrap;html=1;rounded=1;labelBackgroundColor=none;strokeColor=#E07A5F;fontColor=#393C56;" vertex="1" parent="PDOGHzKi66E8nlf_EuT3-183">
          <mxGeometry x="79" width="111" height="33" as="geometry">
            <mxRectangle width="111" height="33" as="alternateBounds" />
          </mxGeometry>
        </mxCell>
        <mxCell id="PDOGHzKi66E8nlf_EuT3-202" value="Apprentice_Language" style="shape=table;startSize=30;container=1;collapsible=1;childLayout=tableLayout;fixedRows=1;rowLines=0;fontStyle=1;align=center;resizeLast=1;html=1;rounded=1;labelBackgroundColor=none;fillColor=#F2CC8F;strokeColor=#E07A5F;fontColor=#393C56;swimlaneFillColor=#E7D0D0;" vertex="1" parent="1">
          <mxGeometry x="431" y="280" width="189" height="107" as="geometry" />
        </mxCell>
        <mxCell id="PDOGHzKi66E8nlf_EuT3-203" value="" style="shape=tableRow;horizontal=0;startSize=0;swimlaneHead=0;swimlaneBody=0;fillColor=none;collapsible=0;dropTarget=0;points=[[0,0.5],[1,0.5]];portConstraint=eastwest;top=0;left=0;right=0;bottom=1;rounded=1;labelBackgroundColor=none;strokeColor=#E07A5F;fontColor=#393C56;" vertex="1" parent="PDOGHzKi66E8nlf_EuT3-202">
          <mxGeometry y="30" width="189" height="30" as="geometry" />
        </mxCell>
        <mxCell id="PDOGHzKi66E8nlf_EuT3-204" value="&lt;div style=&quot;background-color:#282c34;color:#abb2bf&quot;&gt;&lt;pre style=&quot;font-family:&#39;JetBrains Mono&#39;,monospace;font-size:9.8pt;&quot;&gt;FK&lt;/pre&gt;&lt;/div&gt;" style="shape=partialRectangle;connectable=0;fillColor=none;top=0;left=0;bottom=0;right=0;fontStyle=1;overflow=hidden;whiteSpace=wrap;html=1;rounded=1;labelBackgroundColor=none;strokeColor=#E07A5F;fontColor=#393C56;" vertex="1" parent="PDOGHzKi66E8nlf_EuT3-203">
          <mxGeometry width="79" height="30" as="geometry">
            <mxRectangle width="79" height="30" as="alternateBounds" />
          </mxGeometry>
        </mxCell>
        <mxCell id="PDOGHzKi66E8nlf_EuT3-205" value="&lt;div style=&quot;background-color:#282c34;color:#abb2bf&quot;&gt;&lt;pre style=&quot;font-family:&#39;JetBrains Mono&#39;,monospace;font-size:9.8pt;&quot;&gt;&lt;span style=&quot;color:#e06c75;&quot;&gt;apprenticeId&lt;/span&gt;&lt;/pre&gt;&lt;/div&gt;" style="shape=partialRectangle;connectable=0;fillColor=none;top=0;left=0;bottom=0;right=0;align=left;spacingLeft=6;fontStyle=5;overflow=hidden;whiteSpace=wrap;html=1;rounded=1;labelBackgroundColor=none;strokeColor=#E07A5F;fontColor=#393C56;" vertex="1" parent="PDOGHzKi66E8nlf_EuT3-203">
          <mxGeometry x="79" width="110" height="30" as="geometry">
            <mxRectangle width="110" height="30" as="alternateBounds" />
          </mxGeometry>
        </mxCell>
        <mxCell id="PDOGHzKi66E8nlf_EuT3-206" value="" style="shape=tableRow;horizontal=0;startSize=0;swimlaneHead=0;swimlaneBody=0;fillColor=none;collapsible=0;dropTarget=0;points=[[0,0.5],[1,0.5]];portConstraint=eastwest;top=0;left=0;right=0;bottom=0;rounded=1;labelBackgroundColor=none;strokeColor=#E07A5F;fontColor=#393C56;" vertex="1" parent="PDOGHzKi66E8nlf_EuT3-202">
          <mxGeometry y="60" width="189" height="30" as="geometry" />
        </mxCell>
        <mxCell id="PDOGHzKi66E8nlf_EuT3-207" value="&lt;div style=&quot;background-color:#282c34;color:#abb2bf&quot;&gt;&lt;pre style=&quot;font-family:&#39;JetBrains Mono&#39;,monospace;font-size:9.8pt;&quot;&gt;FK&lt;/pre&gt;&lt;/div&gt;" style="shape=partialRectangle;connectable=0;fillColor=none;top=0;left=0;bottom=0;right=0;editable=1;overflow=hidden;whiteSpace=wrap;html=1;rounded=1;labelBackgroundColor=none;strokeColor=#E07A5F;fontColor=#393C56;" vertex="1" parent="PDOGHzKi66E8nlf_EuT3-206">
          <mxGeometry width="79" height="30" as="geometry">
            <mxRectangle width="79" height="30" as="alternateBounds" />
          </mxGeometry>
        </mxCell>
        <mxCell id="PDOGHzKi66E8nlf_EuT3-208" value="&lt;div style=&quot;background-color:#282c34;color:#abb2bf&quot;&gt;&lt;pre style=&quot;font-family:&#39;JetBrains Mono&#39;,monospace;font-size:9.8pt;&quot;&gt;&lt;div&gt;&lt;pre style=&quot;font-family:&#39;JetBrains Mono&#39;,monospace;font-size:9.8pt;&quot;&gt;&lt;span style=&quot;color:#e06c75;&quot;&gt;languageId&lt;/span&gt;&lt;/pre&gt;&lt;/div&gt;&lt;/pre&gt;&lt;/div&gt;" style="shape=partialRectangle;connectable=0;fillColor=none;top=0;left=0;bottom=0;right=0;align=left;spacingLeft=6;overflow=hidden;whiteSpace=wrap;html=1;rounded=1;labelBackgroundColor=none;strokeColor=#E07A5F;fontColor=#393C56;" vertex="1" parent="PDOGHzKi66E8nlf_EuT3-206">
          <mxGeometry x="79" width="110" height="30" as="geometry">
            <mxRectangle width="110" height="30" as="alternateBounds" />
          </mxGeometry>
        </mxCell>
        <mxCell id="PDOGHzKi66E8nlf_EuT3-215" value="" style="edgeStyle=entityRelationEdgeStyle;fontSize=12;html=1;endArrow=ERoneToMany;rounded=0;strokeColor=#E07A5F;fontColor=#393C56;fillColor=#F2CC8F;entryX=1;entryY=0.767;entryDx=0;entryDy=0;entryPerimeter=0;exitX=0;exitY=0.5;exitDx=0;exitDy=0;" edge="1" parent="1" source="PDOGHzKi66E8nlf_EuT3-69" target="PDOGHzKi66E8nlf_EuT3-206">
          <mxGeometry width="100" height="100" relative="1" as="geometry">
            <mxPoint x="580" y="350" as="sourcePoint" />
            <mxPoint x="680" y="250" as="targetPoint" />
          </mxGeometry>
        </mxCell>
        <mxCell id="PDOGHzKi66E8nlf_EuT3-217" value="" style="edgeStyle=entityRelationEdgeStyle;fontSize=12;html=1;endArrow=ERoneToMany;rounded=0;strokeColor=#E07A5F;fontColor=#393C56;fillColor=#F2CC8F;entryX=0;entryY=0.5;entryDx=0;entryDy=0;exitX=1;exitY=0.5;exitDx=0;exitDy=0;" edge="1" parent="1" source="PDOGHzKi66E8nlf_EuT3-36" target="PDOGHzKi66E8nlf_EuT3-203">
          <mxGeometry width="100" height="100" relative="1" as="geometry">
            <mxPoint x="761" y="320" as="sourcePoint" />
            <mxPoint x="670" y="518" as="targetPoint" />
          </mxGeometry>
        </mxCell>
        <mxCell id="PDOGHzKi66E8nlf_EuT3-218" value="" style="edgeStyle=entityRelationEdgeStyle;fontSize=12;html=1;endArrow=ERmandOne;startArrow=ERmandOne;rounded=0;strokeColor=#E07A5F;fontColor=#393C56;fillColor=#F2CC8F;entryX=0;entryY=0.5;entryDx=0;entryDy=0;exitX=1;exitY=0.5;exitDx=0;exitDy=0;" edge="1" parent="1">
          <mxGeometry width="100" height="100" relative="1" as="geometry">
            <mxPoint x="759" y="725" as="sourcePoint" />
            <mxPoint x="150" y="1117" as="targetPoint" />
            <Array as="points">
              <mxPoint x="555.5" y="877" />
              <mxPoint x="460" y="940" />
              <mxPoint x="440" y="860" />
              <mxPoint x="450" y="870" />
              <mxPoint x="540.5" y="877" />
            </Array>
          </mxGeometry>
        </mxCell>
        <mxCell id="PDOGHzKi66E8nlf_EuT3-220" value="" style="edgeStyle=entityRelationEdgeStyle;fontSize=12;html=1;endArrow=ERmandOne;startArrow=ERmandOne;rounded=0;strokeColor=#E07A5F;fontColor=#393C56;fillColor=#F2CC8F;entryX=-0.016;entryY=0.727;entryDx=0;entryDy=0;entryPerimeter=0;exitX=1;exitY=0.5;exitDx=0;exitDy=0;" edge="1" parent="1">
          <mxGeometry width="100" height="100" relative="1" as="geometry">
            <mxPoint x="759" y="725" as="sourcePoint" />
            <mxPoint x="437" y="1144" as="targetPoint" />
            <Array as="points">
              <mxPoint x="534.5" y="857" />
              <mxPoint x="519.5" y="857" />
            </Array>
          </mxGeometry>
        </mxCell>
        <mxCell id="PDOGHzKi66E8nlf_EuT3-221" value="" style="edgeStyle=entityRelationEdgeStyle;fontSize=12;html=1;endArrow=ERmandOne;startArrow=ERmandOne;rounded=0;strokeColor=#E07A5F;fontColor=#393C56;fillColor=#F2CC8F;entryX=0.016;entryY=0.97;entryDx=0;entryDy=0;entryPerimeter=0;exitX=1;exitY=0.5;exitDx=0;exitDy=0;" edge="1" parent="1">
          <mxGeometry width="100" height="100" relative="1" as="geometry">
            <mxPoint x="759" y="725" as="sourcePoint" />
            <mxPoint x="733" y="1152" as="targetPoint" />
            <Array as="points">
              <mxPoint x="535.5" y="857" />
              <mxPoint x="810" y="830" />
              <mxPoint x="840" y="980" />
              <mxPoint x="750" y="980" />
              <mxPoint x="520.5" y="857" />
              <mxPoint x="750" y="980" />
              <mxPoint x="750" y="970" />
              <mxPoint x="750" y="970" />
              <mxPoint x="750" y="970" />
            </Array>
          </mxGeometry>
        </mxCell>
        <mxCell id="PDOGHzKi66E8nlf_EuT3-223" value="" style="edgeStyle=entityRelationEdgeStyle;fontSize=12;html=1;endArrow=ERmany;startArrow=ERmany;rounded=0;strokeColor=#E07A5F;fontColor=#393C56;fillColor=#F2CC8F;exitX=1;exitY=0.5;exitDx=0;exitDy=0;entryX=0.011;entryY=0.758;entryDx=0;entryDy=0;entryPerimeter=0;" edge="1" parent="1" source="PDOGHzKi66E8nlf_EuT3-36" target="PDOGHzKi66E8nlf_EuT3-141">
          <mxGeometry width="100" height="100" relative="1" as="geometry">
            <mxPoint x="540" y="620" as="sourcePoint" />
            <mxPoint x="640" y="520" as="targetPoint" />
          </mxGeometry>
        </mxCell>
      </root>
    </mxGraphModel>
  </diagram>
</mxfile>
